<svg xmlns="http://www.w3.org/2000/svg" xmlns:xlink="http://www.w3.org/1999/xlink" width="150" zoomAndPan="magnify" viewBox="0 0 112.5 98.999996" height="132" preserveAspectRatio="xMidYMid meet" version="1.2"><defs><clipPath id="20036869d2"><path d="M 18.058594 7.203125 L 93.90625 7.203125 L 93.90625 77.976562 L 18.058594 77.976562 Z M 18.058594 7.203125 "/></clipPath></defs><g id="b6867d997e"><g clip-rule="nonzero" clip-path="url(#20036869d2)"><path style=" stroke:none;fill-rule:evenodd;fill:#ffffff;fill-opacity:1;" d="M 53.378906 36.644531 C 56.621094 36.644531 59.253906 39.273438 59.253906 42.515625 C 59.253906 45.757812 56.621094 48.390625 53.378906 48.390625 C 50.136719 48.390625 47.507812 45.757812 47.507812 42.515625 C 47.507812 39.273438 50.136719 36.644531 53.378906 36.644531 Z M 36.386719 20.324219 C 41.101562 16.710938 46.984375 14.566406 53.378906 14.566406 C 68.820312 14.566406 81.335938 27.078125 81.335938 42.515625 C 81.335938 46.179688 80.632812 49.675781 79.351562 52.875 L 84.914062 58.429688 C 87.328125 53.652344 88.699219 48.246094 88.699219 42.515625 C 88.699219 23.015625 72.882812 7.203125 53.378906 7.203125 C 44.949219 7.203125 37.214844 10.15625 31.144531 15.082031 C 29.238281 16.632812 27.496094 18.375 25.945312 20.28125 L 31.1875 25.523438 L 36.449219 30.792969 C 34.144531 34.121094 32.78125 38.15625 32.78125 42.515625 C 32.78125 53.886719 42.003906 63.109375 53.378906 63.109375 C 54.921875 63.109375 56.425781 62.9375 57.871094 62.617188 L 50.734375 55.484375 C 44.695312 54.257812 40.144531 48.921875 40.144531 42.515625 C 40.144531 40.199219 40.746094 38.023438 41.792969 36.128906 C 43 33.945312 44.808594 32.136719 46.992188 30.929688 L 41.65625 25.585938 Z M 48.894531 22.417969 L 56.027344 29.554688 C 62.066406 30.777344 66.617188 36.113281 66.617188 42.515625 C 66.617188 44.835938 66.019531 47.015625 64.96875 48.90625 C 63.761719 51.09375 61.957031 52.898438 59.769531 54.105469 L 65.105469 59.445312 L 70.375 64.710938 C 65.664062 68.328125 59.769531 70.472656 53.378906 70.472656 C 37.941406 70.472656 25.429688 57.957031 25.429688 42.515625 C 25.429688 38.859375 26.128906 35.363281 27.414062 32.160156 L 21.847656 26.597656 C 19.433594 31.386719 18.066406 36.789062 18.066406 42.515625 C 18.066406 62.019531 33.882812 77.835938 53.378906 77.835938 C 61.804688 77.835938 69.546875 74.878906 75.609375 69.957031 L 83.488281 77.835938 L 93.898438 77.835938 L 80.820312 64.746094 L 75.574219 59.511719 L 70.308594 54.242188 C 72.621094 50.914062 73.972656 46.871094 73.972656 42.515625 C 73.972656 31.140625 64.75 21.917969 53.378906 21.917969 C 51.839844 21.917969 50.335938 22.097656 48.894531 22.417969 Z M 48.894531 22.417969 "/></g><g style="fill:#ffffff;fill-opacity:1;"><g transform="translate(17.507575, 88.93292)"><path style="stroke:none" d="M 0.578125 0 L 0.578125 -6.984375 L 1.609375 -6.984375 L 1.609375 -0.953125 L 4.84375 -0.953125 L 4.84375 0 Z M 0.578125 0 "/></g></g><g style="fill:#ffffff;fill-opacity:1;"><g transform="translate(26.320922, 88.93292)"><path style="stroke:none" d="M 2.4375 -6.125 L 2.4375 -0.84375 L 2.953125 -0.84375 L 2.953125 0 L 0.890625 0 L 0.890625 -0.84375 L 1.421875 -0.84375 L 1.421875 -6.125 L 0.890625 -6.125 L 0.890625 -6.984375 L 2.953125 -6.984375 L 2.953125 -6.125 Z M 2.4375 -6.125 "/></g></g><g style="fill:#ffffff;fill-opacity:1;"><g transform="translate(33.952883, 88.93292)"><path style="stroke:none" d="M 6.5625 -6.984375 L 6.5625 0 L 5.515625 0 L 1.625 -5.359375 L 1.625 0 L 0.546875 0 L 0.546875 -6.984375 L 1.640625 -6.984375 L 5.53125 -1.59375 L 5.53125 -6.984375 Z M 6.5625 -6.984375 "/></g></g><g style="fill:#ffffff;fill-opacity:1;"><g transform="translate(44.853344, 88.93292)"><path style="stroke:none" d="M 7.46875 0.09375 L 6.34375 -0.171875 L 5.859375 -0.65625 C 5.566406 -0.4375 5.242188 -0.253906 4.890625 -0.109375 C 4.546875 0.0234375 4.179688 0.09375 3.796875 0.09375 C 3.316406 0.09375 2.867188 0 2.453125 -0.1875 C 2.035156 -0.382812 1.671875 -0.644531 1.359375 -0.96875 C 1.046875 -1.289062 0.796875 -1.664062 0.609375 -2.09375 C 0.421875 -2.53125 0.328125 -3 0.328125 -3.5 C 0.328125 -3.976562 0.421875 -4.4375 0.609375 -4.875 C 0.796875 -5.3125 1.046875 -5.691406 1.359375 -6.015625 C 1.671875 -6.335938 2.035156 -6.59375 2.453125 -6.78125 C 2.867188 -6.976562 3.316406 -7.078125 3.796875 -7.078125 C 4.265625 -7.078125 4.707031 -6.976562 5.125 -6.78125 C 5.550781 -6.59375 5.921875 -6.335938 6.234375 -6.015625 C 6.546875 -5.691406 6.789062 -5.3125 6.96875 -4.875 C 7.15625 -4.4375 7.25 -3.976562 7.25 -3.5 C 7.25 -3.082031 7.179688 -2.691406 7.046875 -2.328125 C 6.910156 -1.960938 6.734375 -1.632812 6.515625 -1.34375 L 6.90625 -0.9375 L 7.703125 -0.71875 Z M 5.796875 -2.0625 C 5.929688 -2.269531 6.03125 -2.492188 6.09375 -2.734375 C 6.164062 -2.972656 6.203125 -3.226562 6.203125 -3.5 C 6.203125 -3.851562 6.132812 -4.1875 6 -4.5 C 5.875 -4.820312 5.703125 -5.097656 5.484375 -5.328125 C 5.273438 -5.566406 5.023438 -5.753906 4.734375 -5.890625 C 4.441406 -6.023438 4.128906 -6.09375 3.796875 -6.09375 C 3.453125 -6.09375 3.132812 -6.023438 2.84375 -5.890625 C 2.550781 -5.753906 2.296875 -5.566406 2.078125 -5.328125 C 1.867188 -5.097656 1.703125 -4.820312 1.578125 -4.5 C 1.453125 -4.1875 1.390625 -3.851562 1.390625 -3.5 C 1.390625 -3.132812 1.453125 -2.789062 1.578125 -2.46875 C 1.703125 -2.144531 1.867188 -1.863281 2.078125 -1.625 C 2.296875 -1.382812 2.550781 -1.195312 2.84375 -1.0625 C 3.132812 -0.925781 3.453125 -0.859375 3.796875 -0.859375 C 4.046875 -0.859375 4.285156 -0.898438 4.515625 -0.984375 C 4.753906 -1.078125 4.972656 -1.195312 5.171875 -1.34375 L 4.265625 -2.25 L 4.9375 -2.9375 Z M 5.796875 -2.0625 "/></g></g><g style="fill:#ffffff;fill-opacity:1;"><g transform="translate(56.433103, 88.93292)"><path style="stroke:none" d="M 6.5625 -6.984375 L 6.5625 0 L 5.515625 0 L 1.625 -5.359375 L 1.625 0 L 0.546875 0 L 0.546875 -6.984375 L 1.640625 -6.984375 L 5.53125 -1.59375 L 5.53125 -6.984375 Z M 6.5625 -6.984375 "/></g></g><g style="fill:#ffffff;fill-opacity:1;"><g transform="translate(67.333564, 88.93292)"><path style="stroke:none" d="M 3.796875 -7.078125 C 4.265625 -7.078125 4.707031 -6.976562 5.125 -6.78125 C 5.550781 -6.59375 5.914062 -6.335938 6.21875 -6.015625 C 6.53125 -5.691406 6.78125 -5.3125 6.96875 -4.875 C 7.15625 -4.4375 7.25 -3.976562 7.25 -3.5 C 7.25 -3 7.15625 -2.53125 6.96875 -2.09375 C 6.78125 -1.664062 6.53125 -1.289062 6.21875 -0.96875 C 5.90625 -0.644531 5.535156 -0.382812 5.109375 -0.1875 C 4.691406 0 4.25 0.09375 3.78125 0.09375 C 3.3125 0.09375 2.863281 0 2.4375 -0.1875 C 2.019531 -0.382812 1.65625 -0.644531 1.34375 -0.96875 C 1.03125 -1.289062 0.78125 -1.664062 0.59375 -2.09375 C 0.414062 -2.53125 0.328125 -3 0.328125 -3.5 C 0.328125 -3.976562 0.414062 -4.4375 0.59375 -4.875 C 0.78125 -5.3125 1.03125 -5.691406 1.34375 -6.015625 C 1.664062 -6.335938 2.035156 -6.59375 2.453125 -6.78125 C 2.867188 -6.976562 3.316406 -7.078125 3.796875 -7.078125 Z M 3.796875 -0.890625 C 4.128906 -0.890625 4.441406 -0.957031 4.734375 -1.09375 C 5.023438 -1.226562 5.273438 -1.410156 5.484375 -1.640625 C 5.703125 -1.878906 5.875 -2.15625 6 -2.46875 C 6.125 -2.789062 6.1875 -3.132812 6.1875 -3.5 C 6.1875 -3.851562 6.125 -4.1875 6 -4.5 C 5.875 -4.820312 5.703125 -5.097656 5.484375 -5.328125 C 5.273438 -5.566406 5.023438 -5.753906 4.734375 -5.890625 C 4.441406 -6.023438 4.128906 -6.09375 3.796875 -6.09375 C 3.453125 -6.09375 3.132812 -6.023438 2.84375 -5.890625 C 2.550781 -5.753906 2.296875 -5.566406 2.078125 -5.328125 C 1.867188 -5.097656 1.695312 -4.820312 1.5625 -4.5 C 1.4375 -4.1875 1.375 -3.851562 1.375 -3.5 C 1.375 -3.132812 1.4375 -2.789062 1.5625 -2.46875 C 1.695312 -2.15625 1.867188 -1.878906 2.078125 -1.640625 C 2.296875 -1.410156 2.550781 -1.226562 2.84375 -1.09375 C 3.132812 -0.957031 3.453125 -0.890625 3.796875 -0.890625 Z M 3.796875 -0.890625 "/></g></g><g style="fill:#ffffff;fill-opacity:1;"><g transform="translate(78.647509, 88.93292)"><path style="stroke:none" d="M 0.59375 0 L 0.59375 -6.984375 L 3.078125 -6.984375 C 3.578125 -6.984375 4.019531 -6.890625 4.40625 -6.703125 C 4.789062 -6.515625 5.113281 -6.265625 5.375 -5.953125 C 5.632812 -5.640625 5.832031 -5.269531 5.96875 -4.84375 C 6.101562 -4.414062 6.171875 -3.960938 6.171875 -3.484375 C 6.171875 -2.992188 6.097656 -2.535156 5.953125 -2.109375 C 5.816406 -1.691406 5.625 -1.328125 5.375 -1.015625 C 5.125 -0.703125 4.828125 -0.453125 4.484375 -0.265625 C 4.148438 -0.0859375 3.785156 0 3.390625 0 Z M 3.03125 -0.953125 C 3.40625 -0.953125 3.722656 -1.019531 3.984375 -1.15625 C 4.242188 -1.300781 4.457031 -1.488281 4.625 -1.71875 C 4.800781 -1.945312 4.925781 -2.210938 5 -2.515625 C 5.082031 -2.828125 5.125 -3.148438 5.125 -3.484375 C 5.125 -3.816406 5.082031 -4.140625 5 -4.453125 C 4.925781 -4.765625 4.804688 -5.035156 4.640625 -5.265625 C 4.472656 -5.503906 4.253906 -5.691406 3.984375 -5.828125 C 3.722656 -5.972656 3.40625 -6.046875 3.03125 -6.046875 L 1.625 -6.046875 L 1.625 -0.953125 Z M 3.03125 -0.953125 "/></g></g><g style="fill:#ffffff;fill-opacity:1;"><g transform="translate(89.085259, 88.93292)"><path style="stroke:none" d="M 4.8125 -6.984375 L 4.8125 -6.046875 L 1.578125 -6.046875 L 1.578125 -4.15625 L 4.453125 -4.15625 L 4.453125 -3.203125 L 1.578125 -3.203125 L 1.578125 -0.953125 L 4.8125 -0.953125 L 4.8125 0 L 0.546875 0 L 0.546875 -6.984375 Z M 4.8125 -6.984375 "/></g></g></g></svg>